<svg xmlns="http://www.w3.org/2000/svg" viewBox="0 0 128 128"><path fill="#326ce5" d="M62.6 2.2c-1.1-.6-2.4-.6-3.5 0L10.3 29.5c-1.2.7-1.9 1.9-1.9 3.2v54.6c0 1.3.7 2.6 1.9 3.2l48.8 27.3c1.1.6 2.4.6 3.5 0l48.8-27.3c1.2-.7 1.9-1.9 1.9-3.2V32.7c0-1.3-.7-2.6-1.9-3.2L62.6 2.2z"/><path fill="#fff" d="M60.9 11.3L17.7 35.5v48.5l43.2 24.2V61.1l-22.5-13 3.3-5.7 25.2 14.5v-45.6zM70.3 11.3v45.6l25.2-14.5 3.3 5.7-22.5 13v47.1l43.2-24.2V35.5L76.8 11.3zM64 47.2l15.4 8.9-3.3 5.7-12.1-7-12.1 7-3.3-5.7L64 47.2zM64 71.8l-15.4 8.9 3.3 5.7 12.1-7 12.1 7 3.3-5.7L64 71.8z"/></svg>
