<?xml version="1.0" encoding="UTF-8" standalone="no"?>
<!-- Created with Inkscape (http://www.inkscape.org/) -->

<svg
   width="200"
   height="40"
   viewBox="0 0 52.916666 10.583333"
   version="1.1"
   id="svg1"
   xmlns="http://www.w3.org/2000/svg"
   xmlns:svg="http://www.w3.org/2000/svg">
  <defs
     id="defs1" />
  <g
     id="layer1">
    <g
       id="g16"
       transform="matrix(0.43385597,0,0,0.43385597,-18.879664,-75.938029)">
      <g
         id="g4"
         transform="matrix(0.78885673,0,0,0.78885673,9.1198316,104.11075)">
        <path
           style="fill:#ffffff;fill-opacity:1;stroke:none;stroke-width:0;stroke-miterlimit:4;stroke-dasharray:none;stroke-opacity:1"
           d="m 63.261172,89.904669 a 2.1187731,2.1013231 0 0 0 -0.811977,0.205463 l -11.080004,5.293862 a 2.1187731,2.1013231 0 0 0 -1.146402,1.425489 l -2.733512,11.891357 a 2.1187731,2.1013231 0 0 0 0.287663,1.61111 2.1187731,2.1013231 0 0 0 0.120451,0.1672 l 7.669137,9.53491 a 2.1187731,2.1013231 0 0 0 1.656545,0.79068 l 12.298676,-0.003 a 2.1187731,2.1013231 0 0 0 1.656545,-0.78927 l 7.666303,-9.53632 a 2.1187731,2.1013231 0 0 0 0.409531,-1.77832 L 76.516364,96.826648 A 2.1187731,2.1013231 0 0 0 75.369962,95.401159 L 64.288541,90.110131 a 2.1187731,2.1013231 0 0 0 -1.027369,-0.205462 z"
           id="path2" />
        <path
           style="fill:#326ce5;fill-opacity:1;stroke:none;stroke-width:0;stroke-miterlimit:4;stroke-dasharray:none;stroke-opacity:1"
           d="m 63.267101,90.720801 a 2.0070117,1.9905872 0 0 0 -0.769146,0.194635 l -10.495554,5.014886 a 2.0070117,1.9905872 0 0 0 -1.085932,1.350368 l -2.589324,11.2647 a 2.0070117,1.9905872 0 0 0 0.27249,1.52621 2.0070117,1.9905872 0 0 0 0.114096,0.15839 l 7.264605,9.03244 a 2.0070117,1.9905872 0 0 0 1.569165,0.74901 l 11.649943,-0.003 a 2.0070117,1.9905872 0 0 0 1.569166,-0.74767 l 7.261919,-9.03378 a 2.0070117,1.9905872 0 0 0 0.387928,-1.6846 l -2.59335,-11.2647 A 2.0070117,1.9905872 0 0 0 74.737175,95.927637 L 64.240279,90.915436 a 2.0070117,1.9905872 0 0 0 -0.973178,-0.194635 z"
           id="path3" />
        <path
           id="path4"
           d="m 63.371099,94.554326 c -0.346938,3.6e-5 -0.628244,0.31253 -0.628203,0.698003 10e-7,0.0059 0.0012,0.01157 0.0013,0.01745 -5.11e-4,0.05238 -0.003,0.115476 -0.0013,0.161078 0.0083,0.22233 0.05674,0.392492 0.08591,0.59733 0.05285,0.438417 0.09713,0.801839 0.0698,1.139625 -0.02658,0.127375 -0.120395,0.243867 -0.204032,0.32484 l -0.01477,0.265778 c -0.377,0.03124 -0.756521,0.08843 -1.135597,0.174501 -1.631164,0.370357 -3.035566,1.210577 -4.104797,2.345019 -0.06938,-0.0473 -0.19076,-0.13441 -0.226853,-0.16107 -0.11216,0.0152 -0.225518,0.0498 -0.373163,-0.0362 -0.281131,-0.189244 -0.537178,-0.45046 -0.847,-0.765123 -0.14196,-0.150522 -0.244763,-0.293852 -0.41343,-0.43894 -0.0383,-0.03295 -0.09676,-0.07751 -0.139601,-0.111412 -0.131864,-0.105133 -0.287392,-0.159961 -0.437594,-0.165104 -0.193117,-0.0066 -0.379024,0.06889 -0.500683,0.221481 -0.216283,0.271272 -0.147037,0.685893 0.154366,0.926197 0.0031,0.0024 0.0063,0.0043 0.0094,0.0067 0.04142,0.03357 0.09213,0.07659 0.130204,0.1047 0.178984,0.132151 0.342482,0.199801 0.520818,0.304711 0.375719,0.23202 0.687195,0.42442 0.934251,0.65639 0.09648,0.10284 0.113338,0.28405 0.126177,0.36242 l 0.201348,0.17987 c -1.077864,1.6221 -1.576709,3.62573 -1.281908,5.66725 l -0.263094,0.0765 c -0.06934,0.0895 -0.167323,0.23044 -0.269807,0.27249 -0.323235,0.10181 -0.687017,0.1392 -1.126202,0.18524 -0.206192,0.0171 -0.384102,0.007 -0.602699,0.0483 -0.04811,0.009 -0.115147,0.0266 -0.167789,0.0389 -0.0018,3.9e-4 -0.0035,9.3e-4 -0.0054,10e-4 -0.0029,6.7e-4 -0.0066,0.002 -0.0094,0.003 -0.37027,0.0895 -0.608133,0.4298 -0.531557,0.76512 0.07659,0.3354 0.438267,0.53936 0.810758,0.45907 0.0027,-6.1e-4 0.0066,-7.2e-4 0.0094,-0.001 0.0042,-9.6e-4 0.0079,-0.003 0.01208,-0.004 0.05193,-0.0114 0.116997,-0.0241 0.16242,-0.0362 0.214914,-0.0575 0.370562,-0.14209 0.563772,-0.21611 0.415664,-0.14908 0.759931,-0.27363 1.095328,-0.32216 0.140081,-0.011 0.287668,0.0864 0.361083,0.12752 l 0.273832,-0.047 c 0.630143,1.95367 1.950722,3.53276 3.622905,4.5236 l -0.114096,0.27383 c 0.04112,0.10633 0.08648,0.2502 0.05585,0.3552 -0.121932,0.3162 -0.330787,0.64994 -0.568613,1.02202 -0.115154,0.1719 -0.233006,0.3053 -0.336921,0.50202 -0.02487,0.0471 -0.05653,0.11939 -0.08054,0.16914 -0.161457,0.34545 -0.04302,0.74332 0.267121,0.89263 0.312093,0.15025 0.699484,-0.008 0.867134,-0.35437 2.58e-4,-4.9e-4 0.0011,-8.5e-4 0.0013,-0.001 1.71e-4,-3.8e-4 -1.72e-4,-9.6e-4 0,-0.001 0.02388,-0.0491 0.05771,-0.11358 0.07785,-0.15973 0.08901,-0.20391 0.118622,-0.37864 0.181212,-0.57585 0.166216,-0.41752 0.257539,-0.85561 0.486351,-1.12858 0.06266,-0.0747 0.164806,-0.1035 0.270714,-0.13186 l 0.142286,-0.25772 c 1.457785,0.55955 3.089541,0.70971 4.719576,0.3396 0.371852,-0.0844 0.730839,-0.1937 1.077878,-0.32484 0.03999,0.0709 0.114306,0.20729 0.134232,0.24162 0.107625,0.035 0.225098,0.0531 0.320813,0.19464 0.171188,0.29247 0.28826,0.63847 0.430882,1.0564 0.0626,0.1972 0.09354,0.37195 0.182555,0.57585 0.02029,0.0465 0.05395,0.11189 0.07785,0.16108 0.167299,0.34727 0.555917,0.50628 0.868478,0.35571 0.310106,-0.14939 0.42867,-0.54723 0.26712,-0.89264 -0.02401,-0.0498 -0.05701,-0.12206 -0.08188,-0.16913 -0.103926,-0.19672 -0.221759,-0.32879 -0.336921,-0.50068 -0.237846,-0.37207 -0.435111,-0.68116 -0.55706,-0.99734 -0.05099,-0.16308 0.0086,-0.2645 0.04832,-0.37048 -0.02379,-0.0273 -0.07469,-0.18127 -0.104701,-0.2537 1.73781,-1.02609 3.019608,-2.66406 3.621564,-4.55581 0.08129,0.0128 0.222568,0.0378 0.268463,0.047 0.09448,-0.0623 0.181349,-0.14362 0.351686,-0.13021 0.335399,0.0485 0.679657,0.1731 1.095328,0.32216 0.193214,0.074 0.348856,0.15992 0.563772,0.21745 0.04542,0.0122 0.110494,0.0235 0.16242,0.0349 0.0042,0.001 0.0079,0.003 0.01208,0.004 0.0028,6.3e-4 0.0067,7.3e-4 0.0094,10e-4 0.372513,0.0802 0.73425,-0.12365 0.810758,-0.45907 0.07649,-0.33534 -0.161263,-0.67575 -0.531557,-0.76512 -0.05386,-0.0123 -0.130247,-0.0331 -0.182554,-0.043 -0.218599,-0.0414 -0.396506,-0.0312 -0.602699,-0.0483 -0.439187,-0.046 -0.802962,-0.0834 -1.126202,-0.18524 -0.131794,-0.0511 -0.225553,-0.20795 -0.271149,-0.27249 l -0.253698,-0.0738 c 0.131537,-0.95162 0.09607,-1.94201 -0.131546,-2.93295 -0.229735,-1.00017 -0.635736,-1.91493 -1.17721,-2.72087 0.06508,-0.0592 0.187975,-0.16799 0.222824,-0.20001 0.01019,-0.11272 0.0014,-0.2309 0.118124,-0.35571 0.247043,-0.23198 0.558544,-0.42434 0.93425,-0.65639 0.178331,-0.10492 0.343184,-0.172548 0.522161,-0.304707 0.04047,-0.02989 0.09574,-0.07721 0.138258,-0.111413 0.301339,-0.240385 0.370718,-0.654981 0.154366,-0.926196 -0.216352,-0.271216 -0.635596,-0.296762 -0.936935,-0.05638 -0.04289,0.03397 -0.101094,0.07828 -0.139601,0.111412 -0.168659,0.145097 -0.27282,0.28841 -0.414775,0.438936 -0.309805,0.31468 -0.56588,0.577207 -0.847,0.766458 -0.121818,0.0709 -0.300247,0.0464 -0.381219,0.0416 l -0.238932,0.17048 c -1.362451,-1.428678 -3.217459,-2.342091 -5.214882,-2.519527 -0.0056,-0.08371 -0.01291,-0.235009 -0.01476,-0.280544 -0.08177,-0.07825 -0.180554,-0.14505 -0.205374,-0.314101 -0.02733,-0.337786 0.0183,-0.701208 0.07114,-1.139625 0.02917,-0.204838 0.07764,-0.375 0.08591,-0.59733 0.0019,-0.05054 -0.0011,-0.12388 -0.0013,-0.178528 -4.1e-5,-0.385473 -0.281265,-0.698038 -0.628203,-0.698003 z m -0.786596,4.8726 -0.186582,3.295384 -0.01342,0.007 c -0.01251,0.29481 -0.255145,0.53021 -0.553033,0.53021 -0.122024,0 -0.234655,-0.0392 -0.326182,-0.10604 l -0.0054,0.003 -2.702078,-1.91548 c 0.830459,-0.81661 1.892681,-1.420082 3.116853,-1.698032 0.223619,-0.05077 0.447137,-0.08845 0.669815,-0.115439 z m 1.574534,0 c 1.429231,0.175782 2.750993,0.822954 3.763849,1.814814 l -2.684628,1.9034 -0.0094,-0.004 c -0.238286,0.17403 -0.574014,0.13085 -0.75975,-0.10202 -0.07608,-0.0954 -0.116007,-0.20757 -0.120808,-0.32081 l -0.0027,-0.001 z m -6.341091,3.044364 2.467173,2.20677 -0.0027,0.0134 c 0.22269,0.19359 0.255529,0.52953 0.0698,0.76243 -0.07608,0.0954 -0.177919,0.1594 -0.287255,0.18927 l -0.0027,0.0107 -3.162492,0.91277 c -0.160961,-1.47182 0.185929,-2.90256 0.918143,-4.0954 z m 11.088856,0.001 c 0.366574,0.59417 0.644163,1.25779 0.809416,1.97723 0.163271,0.71082 0.204246,1.42036 0.136916,2.10609 l -3.1786,-0.91545 -0.0027,-0.0134 c -0.284635,-0.0778 -0.459562,-0.36733 -0.393298,-0.65774 0.02715,-0.11897 0.0903,-0.21961 0.175844,-0.29397 l -0.0013,-0.007 2.45375,-2.19602 z m -6.041755,2.3759 h 1.010762 l 0.628203,0.78525 -0.225509,0.97989 -0.907404,0.43626 -0.910089,-0.4376 -0.225509,-0.97989 z m 3.240346,2.68731 c 0.04295,-0.002 0.08572,0.002 0.12752,0.009 l 0.0054,-0.007 3.271219,0.55304 c -0.478744,1.34502 -1.394838,2.51024 -2.618854,3.29001 l -1.269829,-3.06719 0.004,-0.005 c -0.116646,-0.27104 8.6e-5,-0.58888 0.268463,-0.71814 0.06871,-0.0331 0.140498,-0.0514 0.212086,-0.055 z m -5.494092,0.0134 c 0.249638,0.003 0.473553,0.17677 0.531557,0.43089 0.02715,0.11896 0.01394,0.23683 -0.03087,0.34094 l 0.0094,0.0121 -1.256406,3.03632 c -1.174671,-0.75379 -2.110301,-1.88242 -2.610801,-3.26719 l 3.243031,-0.55035 0.0054,0.007 c 0.03628,-0.007 0.07306,-0.01 0.108727,-0.009 z m 2.739663,1.33024 c 0.08696,-0.003 0.175195,0.0147 0.259067,0.055 0.109941,0.0529 0.194871,0.1363 0.248328,0.23625 h 0.01208 l 1.598696,2.88866 c -0.20748,0.0696 -0.420782,0.12899 -0.638941,0.17852 -1.222667,0.27761 -2.441449,0.1935 -3.545052,-0.18255 l 1.594669,-2.88329 h 0.0027 c 0.09569,-0.17888 0.27716,-0.2856 0.468467,-0.29263 z"
           style="color:#000000;font-style:normal;font-variant:normal;font-weight:normal;font-stretch:normal;font-size:medium;line-height:normal;font-family:Sans;-inkscape-font-specification:Sans;text-indent:0;text-align:start;text-decoration:none;text-decoration-line:none;letter-spacing:normal;word-spacing:normal;text-transform:none;writing-mode:lr-tb;direction:ltr;baseline-shift:baseline;text-anchor:start;display:inline;overflow:visible;visibility:visible;fill:#ffffff;fill-opacity:1;stroke:none;stroke-width:0;stroke-miterlimit:4;stroke-dasharray:none;stroke-opacity:1;marker:none;enable-background:accumulate" />
      </g>
      <g
         style="font-style:normal;font-weight:normal;font-size:40px;line-height:125%;font-family:Sans;letter-spacing:0px;word-spacing:0px;fill:#ffffff;fill-opacity:1;stroke:none"
         id="g14"
         transform="matrix(0.11455329,0,0,0.11455329,78.293303,144.99261)">
        <path
           d="m 36.220121,374.76552 c 1.979968,-2.15995 4.004966,-4.40995 6.075,-6.75 2.159962,-2.33995 4.22996,-4.63494 6.21,-6.885 1.979956,-2.33994 3.824954,-4.54494 5.535,-6.615 1.799951,-2.06993 3.329949,-3.86993 4.59,-5.4 h 23.895 c -4.770071,5.49006 -9.450067,10.75506 -14.04,15.795 -4.500057,4.95005 -9.450053,10.08004 -14.85,15.39 2.69995,2.43004 5.489947,5.35503 8.37,8.775 2.879942,3.33003 5.669939,6.79502 8.37,10.395 2.699933,3.60002 5.174931,7.20001 7.425,10.8 2.249926,3.60001 4.139925,6.885 5.67,9.855 h -23.085 c -1.440052,-2.34 -3.105051,-4.905 -4.995,-7.695 -1.800047,-2.87999 -3.735045,-5.71499 -5.805,-8.505 -2.070041,-2.87998 -4.275039,-5.62498 -6.615,-8.235 -2.250034,-2.60997 -4.500032,-4.81497 -6.75,-6.615 v 31.05 h -20.115 v -101.52 l 20.115,-3.24 v 59.4"
           style="font-variant:normal;font-weight:bold;font-stretch:normal;font-size:135px;font-family:Ubuntu;-inkscape-font-specification:'Ubuntu Bold';fill:#ffffff"
           id="path5" />
        <path
           d="m 153.44864,417.69552 c -3.42007,0.99 -7.83007,1.89 -13.23,2.7 -5.40005,0.9 -11.07005,1.35 -17.01,1.35 -6.03004,0 -11.07003,-0.81 -15.12,-2.43 -3.96002,-1.62 -7.11002,-3.87 -9.450004,-6.75 -2.340012,-2.96999 -4.005011,-6.47999 -4.995,-10.53 -0.990009,-4.04998 -1.485008,-8.50497 -1.485,-13.365 v -39.555 h 20.115004 v 37.125 c -3e-5,6.48003 0.85497,11.16002 2.565,14.04 1.70996,2.88002 4.90496,4.32001 9.585,4.32 1.43995,10e-6 2.96995,-0.045 4.59,-0.135 1.61995,-0.17999 3.05995,-0.35999 4.32,-0.54 v -54.81 h 20.115 v 68.58"
           style="font-variant:normal;font-weight:bold;font-stretch:normal;font-size:135px;font-family:Ubuntu;-inkscape-font-specification:'Ubuntu Bold';fill:#ffffff"
           id="path6" />
        <path
           d="m 217.95754,384.08052 c -5e-5,-12.95995 -4.77005,-19.43995 -14.31,-19.44 -2.07004,5e-5 -4.14003,0.27005 -6.21,0.81 -1.98003,0.54005 -3.60003,1.21505 -4.86,2.025 v 36.585 c 0.98997,0.18001 2.24997,0.36001 3.78,0.54 1.52997,0.09 3.19497,0.13501 4.995,0.135 5.48996,10e-6 9.62995,-1.88998 12.42,-5.67 2.78995,-3.77998 4.18495,-8.77497 4.185,-14.985 m 20.52,0.54 c -7e-5,5.67003 -0.85507,10.80002 -2.565,15.39 -1.62007,4.59001 -4.00507,8.50501 -7.155,11.745 -3.15006,3.24 -7.02006,5.76 -11.61,7.56 -4.59005,1.71 -9.81004,2.565 -15.66,2.565 -2.43003,0 -4.99503,-0.135 -7.695,-0.405 -2.61003,-0.18 -5.22002,-0.45 -7.83,-0.81 -2.52002,-0.36 -4.95002,-0.765 -7.29,-1.215 -2.34001,-0.54 -4.41001,-1.08 -6.21,-1.62 v -99.225 l 20.115,-3.24 v 35.37 c 2.24997,-0.98993 4.58997,-1.75493 7.02,-2.295 2.42996,-0.53993 5.03996,-0.80993 7.83,-0.81 5.03995,7e-5 9.49495,0.90007 13.365,2.7 3.86994,1.71007 7.10994,4.18506 9.72,7.425 2.60993,3.24006 4.58993,7.15505 5.94,11.745 1.34993,4.50004 2.02493,9.54004 2.025,15.12"
           style="font-variant:normal;font-weight:bold;font-stretch:normal;font-size:135px;font-family:Ubuntu;-inkscape-font-specification:'Ubuntu Bold';fill:#ffffff"
           id="path7" />
        <path
           d="m 250.56215,385.16052 c 0,-6.29996 0.945,-11.78995 2.835,-16.47 1.97999,-4.76994 4.54499,-8.72994 7.695,-11.88 3.14998,-3.14993 6.74998,-5.53493 10.8,-7.155 4.13997,-1.61993 8.36997,-2.42993 12.69,-2.43 10.07995,7e-5 18.04494,3.10507 23.895,9.315 5.84993,6.12006 8.77493,15.16505 8.775,27.135 -7e-5,1.17003 -0.0451,2.47503 -0.135,3.915 -0.0901,1.35003 -0.18007,2.56503 -0.27,3.645 h -45.63 c 0.44997,4.14002 2.38497,7.42502 5.805,9.855 3.41997,2.43002 8.00996,3.64501 13.77,3.645 3.68995,10e-6 7.28995,-0.31499 10.8,-0.945 3.59994,-0.71998 6.52494,-1.57498 8.775,-2.565 l 2.7,16.335 c -1.08007,0.54 -2.52006,1.08 -4.32,1.62 -1.80006,0.54 -3.82506,0.99 -6.075,1.35 -2.16005,0.45 -4.50005,0.81 -7.02,1.08 -2.52005,0.27 -5.04004,0.405 -7.56,0.405 -6.39004,0 -11.97003,-0.945 -16.74,-2.835 -4.68002,-1.89 -8.59502,-4.455 -11.745,-7.695 -3.06001,-3.32999 -5.35501,-7.24499 -6.885,-11.745 -1.44,-4.49998 -2.16,-9.35997 -2.16,-14.58 m 47.25,-7.695 c -0.09,-1.70996 -0.40505,-3.37496 -0.945,-4.995 -0.45005,-1.61995 -1.21505,-3.05995 -2.295,-4.32 -0.99005,-1.25995 -2.29505,-2.29495 -3.915,-3.105 -1.53004,-0.80995 -3.46504,-1.21494 -5.805,-1.215 -2.25004,6e-5 -4.18503,0.40505 -5.805,1.215 -1.62003,0.72005 -2.97003,1.71005 -4.05,2.97 -1.08003,1.26005 -1.93503,2.74505 -2.565,4.455 -0.54003,1.62004 -0.94502,3.28504 -1.215,4.995 h 26.595"
           style="font-variant:normal;font-weight:bold;font-stretch:normal;font-size:135px;font-family:Ubuntu;-inkscape-font-specification:'Ubuntu Bold';fill:#ffffff"
           id="path8" />
        <path
           d="m 375.57004,366.93552 c -1.80005,-0.44995 -3.91505,-0.89995 -6.345,-1.35 -2.43004,-0.53995 -5.04004,-0.80995 -7.83,-0.81 -1.26003,5e-5 -2.79003,0.13505 -4.59,0.405 -1.71003,0.18005 -3.01503,0.40505 -3.915,0.675 v 54.27 h -20.115 v -67.23 c 3.59999,-1.25993 7.82999,-2.42993 12.69,-3.51 4.94998,-1.16993 10.43997,-1.75493 16.47,-1.755 1.07996,7e-5 2.38496,0.0901 3.915,0.27 1.52996,0.0901 3.05996,0.27007 4.59,0.54 1.52995,0.18007 3.05995,0.45007 4.59,0.81 1.52995,0.27007 2.83495,0.63007 3.915,1.08 l -3.375,16.605"
           style="font-variant:normal;font-weight:bold;font-stretch:normal;font-size:135px;font-family:Ubuntu;-inkscape-font-specification:'Ubuntu Bold';fill:#ffffff"
           id="path9" />
        <path
           d="m 389.72817,351.54552 c 3.41998,-0.98993 7.82998,-1.88993 13.23,-2.7 5.39997,-0.89993 11.06996,-1.34993 17.01,-1.35 6.02995,7e-5 11.02495,0.81007 14.985,2.43 4.04994,1.53007 7.24494,3.73507 9.585,6.615 2.33993,2.88006 4.00493,6.30006 4.995,10.26 0.98993,3.96005 1.48493,8.37004 1.485,13.23 v 40.095 h -20.115 v -37.665 c -5e-5,-6.47996 -0.85505,-11.06995 -2.565,-13.77 -1.71005,-2.69995 -4.90505,-4.04995 -9.585,-4.05 -1.44004,5e-5 -2.97004,0.0901 -4.59,0.27 -1.62003,0.09 -3.06003,0.22505 -4.32,0.405 v 54.81 h -20.115 v -68.58"
           style="font-variant:normal;font-weight:bold;font-stretch:normal;font-size:135px;font-family:Ubuntu;-inkscape-font-specification:'Ubuntu Bold';fill:#ffffff"
           id="path10" />
        <path
           d="m 465.98207,385.16052 c 0,-6.29996 0.945,-11.78995 2.835,-16.47 1.97999,-4.76994 4.54499,-8.72994 7.695,-11.88 3.14998,-3.14993 6.74998,-5.53493 10.8,-7.155 4.13997,-1.61993 8.36997,-2.42993 12.69,-2.43 10.07995,7e-5 18.04495,3.10507 23.895,9.315 5.84993,6.12006 8.77493,15.16505 8.775,27.135 -7e-5,1.17003 -0.0451,2.47503 -0.135,3.915 -0.0901,1.35003 -0.18007,2.56503 -0.27,3.645 h -45.63 c 0.44998,4.14002 2.38497,7.42502 5.805,9.855 3.41997,2.43002 8.00996,3.64501 13.77,3.645 3.68995,10e-6 7.28995,-0.31499 10.8,-0.945 3.59994,-0.71998 6.52494,-1.57498 8.775,-2.565 l 2.7,16.335 c -1.08006,0.54 -2.52006,1.08 -4.32,1.62 -1.80006,0.54 -3.82506,0.99 -6.075,1.35 -2.16005,0.45 -4.50005,0.81 -7.02,1.08 -2.52004,0.27 -5.04004,0.405 -7.56,0.405 -6.39003,0 -11.97003,-0.945 -16.74,-2.835 -4.68002,-1.89 -8.59501,-4.455 -11.745,-7.695 -3.06001,-3.32999 -5.35501,-7.24499 -6.885,-11.745 -1.44,-4.49998 -2.16,-9.35997 -2.16,-14.58 m 47.25,-7.695 c -0.0901,-1.70996 -0.40505,-3.37496 -0.945,-4.995 -0.45005,-1.61995 -1.21505,-3.05995 -2.295,-4.32 -0.99005,-1.25995 -2.29504,-2.29495 -3.915,-3.105 -1.53004,-0.80995 -3.46504,-1.21494 -5.805,-1.215 -2.25003,6e-5 -4.18503,0.40505 -5.805,1.215 -1.62003,0.72005 -2.97003,1.71005 -4.05,2.97 -1.08003,1.26005 -1.93502,2.74505 -2.565,4.455 -0.54002,1.62004 -0.94502,3.28504 -1.215,4.995 h 26.595"
           style="font-variant:normal;font-weight:bold;font-stretch:normal;font-size:135px;font-family:Ubuntu;-inkscape-font-specification:'Ubuntu Bold';fill:#ffffff"
           id="path11" />
        <path
           d="m 547.51996,331.43052 20.115,-3.24 v 20.925 h 24.165 v 16.74 h -24.165 v 24.975 c -2e-5,4.23002 0.71997,7.60502 2.16,10.125 1.52997,2.52002 4.54497,3.78001 9.045,3.78 2.15996,10e-6 4.36496,-0.17999 6.615,-0.54 2.33996,-0.44998 4.45495,-1.03498 6.345,-1.755 l 2.835,15.66 c -2.43005,0.99 -5.13005,1.845 -8.1,2.565 -2.97004,0.72 -6.61504,1.08 -10.935,1.08 -5.49003,0 -10.03502,-0.72 -13.635,-2.16 -3.60002,-1.53 -6.48001,-3.6 -8.64,-6.21 -2.16001,-2.69999 -3.69001,-5.93999 -4.59,-9.72 -0.81,-3.77998 -1.215,-7.96498 -1.215,-12.555 v -59.67"
           style="font-variant:normal;font-weight:bold;font-stretch:normal;font-size:135px;font-family:Ubuntu;-inkscape-font-specification:'Ubuntu Bold';fill:#ffffff"
           id="path12" />
        <path
           d="m 602.03676,385.16052 c 0,-6.29996 0.94499,-11.78995 2.835,-16.47 1.97999,-4.76994 4.54499,-8.72994 7.695,-11.88 3.14998,-3.14993 6.74998,-5.53493 10.8,-7.155 4.13997,-1.61993 8.36997,-2.42993 12.69,-2.43 10.07995,7e-5 18.04494,3.10507 23.895,9.315 5.84993,6.12006 8.77493,15.16505 8.775,27.135 -7e-5,1.17003 -0.0451,2.47503 -0.135,3.915 -0.0901,1.35003 -0.18007,2.56503 -0.27,3.645 h -45.63 c 0.44997,4.14002 2.38497,7.42502 5.805,9.855 3.41997,2.43002 8.00996,3.64501 13.77,3.645 3.68995,10e-6 7.28995,-0.31499 10.8,-0.945 3.59994,-0.71998 6.52494,-1.57498 8.775,-2.565 l 2.7,16.335 c -1.08007,0.54 -2.52006,1.08 -4.32,1.62 -1.80006,0.54 -3.82506,0.99 -6.075,1.35 -2.16005,0.45 -4.50005,0.81 -7.02,1.08 -2.52005,0.27 -5.04004,0.405 -7.56,0.405 -6.39004,0 -11.97003,-0.945 -16.74,-2.835 -4.68002,-1.89 -8.59502,-4.455 -11.745,-7.695 -3.06001,-3.32999 -5.35501,-7.24499 -6.885,-11.745 -1.44001,-4.49998 -2.16,-9.35997 -2.16,-14.58 m 47.25,-7.695 c -0.09,-1.70996 -0.40505,-3.37496 -0.945,-4.995 -0.45005,-1.61995 -1.21505,-3.05995 -2.295,-4.32 -0.99005,-1.25995 -2.29505,-2.29495 -3.915,-3.105 -1.53004,-0.80995 -3.46504,-1.21494 -5.805,-1.215 -2.25004,6e-5 -4.18503,0.40505 -5.805,1.215 -1.62003,0.72005 -2.97003,1.71005 -4.05,2.97 -1.08003,1.26005 -1.93503,2.74505 -2.565,4.455 -0.54003,1.62004 -0.94503,3.28504 -1.215,4.995 h 26.595"
           style="font-variant:normal;font-weight:bold;font-stretch:normal;font-size:135px;font-family:Ubuntu;-inkscape-font-specification:'Ubuntu Bold';fill:#ffffff"
           id="path13" />
        <path
           d="m 704.63465,405.68052 c 3.68997,10e-6 6.29997,-0.35999 7.83,-1.08 1.52996,-0.71998 2.29496,-2.11498 2.295,-4.185 -4e-5,-1.61998 -0.99004,-3.01498 -2.97,-4.185 -1.98003,-1.25998 -4.99503,-2.65497 -9.045,-4.185 -3.15002,-1.16997 -6.03002,-2.38497 -8.64,-3.645 -2.52001,-1.25997 -4.68001,-2.74497 -6.48,-4.455 -1.80001,-1.79996 -3.19501,-3.91496 -4.185,-6.345 -0.99001,-2.42996 -1.48501,-5.35495 -1.485,-8.775 -10e-6,-6.65994 2.47499,-11.92494 7.425,-15.795 4.94998,-3.86993 11.74498,-5.80493 20.385,-5.805 4.31996,7e-5 8.45996,0.40507 12.42,1.215 3.95995,0.72007 7.10995,1.53007 9.45,2.43 l -3.51,15.66 c -2.34005,-0.80995 -4.90505,-1.52995 -7.695,-2.16 -2.70004,-0.62994 -5.76004,-0.94494 -9.18,-0.945 -6.30003,6e-5 -9.45002,1.75505 -9.45,5.265 -2e-5,0.81005 0.13497,1.53005 0.405,2.16 0.26997,0.63005 0.80997,1.26005 1.62,1.89 0.80997,0.54005 1.88997,1.17005 3.24,1.89 1.43997,0.63004 3.23997,1.35004 5.4,2.16 4.40996,1.62004 8.05496,3.24004 10.935,4.86 2.87995,1.53004 5.12995,3.24003 6.75,5.13 1.70995,1.80003 2.87994,3.82503 3.51,6.075 0.71994,2.25002 1.07994,4.86002 1.08,7.83 -6e-5,7.02001 -2.65506,12.33001 -7.965,15.93 -5.22004,3.6 -12.64504,5.4 -22.275,5.4 -6.30002,0 -11.56502,-0.54 -15.795,-1.62 -4.14001,-1.08 -7.02,-1.98 -8.64,-2.7 l 3.375,-16.335 c 3.41999,1.35002 6.92999,2.43002 10.53,3.24 3.59998,0.72001 7.15498,1.08001 10.665,1.08"
           style="font-variant:normal;font-weight:bold;font-stretch:normal;font-size:135px;font-family:Ubuntu;-inkscape-font-specification:'Ubuntu Bold';fill:#ffffff"
           id="path14" />
      </g>
    </g>
  </g>
</svg>
